<?xml version="1.0" standalone="no"?><svg xmlns="http://www.w3.org/2000/svg" viewBox="0 0 1440 320"><path fill="#ff8484" fill-opacity="1" d="M0,288L17.1,282.7C34.3,277,69,267,103,245.3C137.1,224,171,192,206,181.3C240,171,274,181,309,165.3C342.9,149,377,107,411,74.7C445.7,43,480,21,514,42.7C548.6,64,583,128,617,160C651.4,192,686,192,720,165.3C754.3,139,789,85,823,74.7C857.1,64,891,96,926,106.7C960,117,994,107,1029,112C1062.9,117,1097,139,1131,133.3C1165.7,128,1200,96,1234,101.3C1268.6,107,1303,149,1337,192C1371.4,235,1406,277,1423,298.7L1440,320L1440,320L1422.9,320C1405.7,320,1371,320,1337,320C1302.9,320,1269,320,1234,320C1200,320,1166,320,1131,320C1097.1,320,1063,320,1029,320C994.3,320,960,320,926,320C891.4,320,857,320,823,320C788.6,320,754,320,720,320C685.7,320,651,320,617,320C582.9,320,549,320,514,320C480,320,446,320,411,320C377.1,320,343,320,309,320C274.3,320,240,320,206,320C171.4,320,137,320,103,320C68.6,320,34,320,17,320L0,320Z"></path></svg>